<svg xmlns="http://www.w3.org/2000/svg" viewBox="0 0 64 64" width="64" height="64">
  <defs>
    <radialGradient id="bg" cx="50%" cy="42%" r="62%">
      <stop offset="0%" stop-color="#10201a"></stop>
      <stop offset="100%" stop-color="#040908"></stop>
    </radialGradient>
    <radialGradient id="bf" cx="34%" cy="28%" r="72%">
      <stop offset="0%" stop-color="#e8ece4"></stop>
      <stop offset="55%" stop-color="#c8ccbf"></stop>
      <stop offset="100%" stop-color="#a4a89c"></stop>
    </radialGradient>
    <radialGradient id="yfl" cx="50%" cy="50%" r="50%">
      <stop offset="0%" stop-color="#ffdf00"></stop>
      <stop offset="100%" stop-color="#ffdf00" stop-opacity="0"></stop>
    </radialGradient>
    <radialGradient id="wfl" cx="50%" cy="50%" r="50%">
      <stop offset="0%" stop-color="#ffffff" stop-opacity="0.6"></stop>
      <stop offset="100%" stop-color="#ffffff" stop-opacity="0"></stop>
    </radialGradient>
    <clipPath id="bc">
      <circle cx="32" cy="32" r="17.75"></circle>
    </clipPath>
    <filter id="gg" x="-50%" y="-50%" width="200%" height="200%">
      <feGaussianBlur stdDeviation="1.75"></feGaussianBlur>
    </filter>
  </defs>

  <rect width="64" height="64" rx="12.5" fill="url(#bg)"></rect>

  
  <ellipse cx="32" cy="62" rx="32" ry="11" fill="none" stroke="#00e060" stroke-width="0.18" opacity="0.12"></ellipse>
  <ellipse cx="32" cy="62" rx="25" ry="8.5" fill="none" stroke="#00e060" stroke-width="0.12" opacity="0.08"></ellipse>

  
  <circle cx="32" cy="32" r="18.1" fill="none" stroke="#00ff6a" stroke-width="2.75" opacity="0.20" filter="url(#gg)"></circle>

  
  <circle cx="32" cy="32" r="17.75" fill="url(#bf)"></circle>

  
  <g clip-path="url(#bc)" fill="none" stroke="#00e864" stroke-width="0.45" stroke-linecap="round">
    <path d="M 14.25,32 C 21.25,16.75 42.75,47.25 49.75,32"></path>
    <path d="M 40.875,15.625 C 43.75,31 20.25,32.5 23.125,47.875"></path>
    <path d="M 23.125,15.625 C 20.25,31 43.75,32.5 40.875,47.875"></path>
  </g>

  
  <ellipse cx="24.25" cy="23.5" rx="6.25" ry="4" fill="url(#yfl)" transform="rotate(-28 24.25 23.5)" opacity="0.78"></ellipse>

  
  <ellipse cx="26" cy="23" rx="7.25" ry="4" fill="url(#wfl)" transform="rotate(-18 26 23)"></ellipse>

  
  <circle cx="32" cy="32" r="17.75" fill="none" stroke="#00e864" stroke-width="0.35"></circle>

  
  <circle cx="32" cy="32" r="18.6" fill="none" stroke="#ffdf00" stroke-width="0.28" opacity="0.6"></circle>

  
  <circle cx="32" cy="9" r="0.5" fill="#ffdf00" opacity="0.80"></circle>
</svg>