<svg xmlns="http://www.w3.org/2000/svg" viewBox="0 0 64 64" width="64" height="64">
  <defs>
    <radialGradient id="bg" cx="50%" cy="45%" r="60%">
      <stop offset="0%" stop-color="#0e1f14"></stop>
      <stop offset="100%" stop-color="#03080a"></stop>
    </radialGradient>
    <radialGradient id="ball" cx="32%" cy="26%" r="74%">
      <stop offset="0%" stop-color="#fff176"></stop>
      <stop offset="40%" stop-color="#ffe000"></stop>
      <stop offset="80%" stop-color="#f5a800"></stop>
      <stop offset="100%" stop-color="#d07800"></stop>
    </radialGradient>
    <radialGradient id="glassHi" cx="50%" cy="50%" r="50%">
      <stop offset="0%" stop-color="#ffffff" stop-opacity="0.6"></stop>
      <stop offset="100%" stop-color="#ffffff" stop-opacity="0"></stop>
    </radialGradient>
    <clipPath id="bc"><circle cx="32" cy="31.5" r="18.5"></circle></clipPath>
    <filter id="bb" x="-80%" y="-80%" width="260%" height="260%">
      <feGaussianBlur stdDeviation="4"></feGaussianBlur>
    </filter>
  </defs>

  <rect width="64" height="64" rx="12.5" fill="url(#bg)"></rect>

  
  <circle cx="32" cy="31.5" r="25" fill="#ffe000" opacity="0.14" filter="url(#bb)"></circle>

  
  <circle cx="32" cy="31.5" r="18.5" fill="url(#ball)"></circle>

  
  <g clip-path="url(#bc)" fill="none" stroke="#005a20" stroke-width="0.52" stroke-linecap="round">
    <path d="M 13.5,31.5 C 21,16.25 43,46.75 50.5,31.5"></path>
    <path d="M 41,14.9 C 44,30.9 20,32.1 23,48.1"></path>
    <path d="M 23,14.9 C 20,30.9 44,32.1 41,48.1"></path>
  </g>

  
  <ellipse cx="25.5" cy="22.2" rx="8.2" ry="4.5" fill="url(#glassHi)" transform="rotate(-22 25.5 22.2)"></ellipse>

  
  <circle cx="32" cy="31.5" r="18.5" fill="none" stroke="#00ff6a" stroke-width="0.5" opacity="0.9"></circle>
  
  <circle cx="32" cy="31.5" r="19.2" fill="none" stroke="#ffe000" stroke-width="0.6" opacity="0.55"></circle>
</svg>